:FULLY-SPECIFIED
:FORCE-ALL-JOINTS-BE-3DOF
:DEGREES
815
root 1.95976 16.7106 22.541 4.94904 1.76087 -6.41824
lfemur -39.6948 0.679075 -0.468553
ltibia 22.2708 -0 0
lfoot -9.3224 6.50687 0.0115723
ltoes 15.3778 -0 0
rfemur 0.615981 4.97358 21.8665
rtibia 22.7628 -0 0
rfoot -22.3311 -10.1585 -0.00466056
rtoes -21.99 0 0
lowerback 0.974532 5.90115 5.60067
upperback -0.0759256 7.92976 -0.337032
thorax 0.181044 3.96851 -3.45381
lowerneck -5.95708 -1.66991 2.8802
upperneck -0.906034 -2.4214 1.35792
head 0.685057 -1.19458 -0.114732
lclavicle -2.74006e-14 -4.17274e-16 -1.55812e-31
lhumerus -53.1433 -7.28112 91.7701
lradius 54.0674 -0 0
lwrist 19.6319 0 0
lhand -11.3134 5.13654 0.00280465
lfingers 7.12502 -0 0
lthumb 14.718 34.5847 0.000547562
rclavicle -2.74006e-14 -4.17274e-16 -1.55812e-31
rhumerus -30.8916 45.5834 -111.567
rradius 67.6412 -0 0
rwrist -1.1202 0 0
rhand -11.1308 -25.3712 0.0130638
rfingers 7.12502 -0 0
rthumb 14.8939 -54.809 0.0146155
816
root 1.99245 16.6874 22.7044 4.9278 0.401234 -6.68498
lfemur -38.8786 0.290365 0.615261
ltibia 20.6769 -0 0
lfoot -9.00194 8.45747 0.017747
ltoes 16.1951 -0 0
rfemur 1.69485 5.47786 22.0204
rtibia 21.7853 -0 0
rfoot -22.1564 -10.5928 -0.00563793
rtoes -22.5568 0 0
lowerback 0.792116 6.10625 5.69525
upperback -0.113677 8.19384 -0.266438
thorax 0.273134 4.10203 -3.40664
lowerneck -5.86535 -1.61767 2.9666
upperneck -0.722603 -2.35858 1.35929
head 0.726247 -1.16126 -0.127544
lclavicle -2.16383e-14 -5.72593e-16 -1.29373e-31
lhumerus -53.1249 -7.09634 91.5473
lradius 53.5775 -0 0
lwrist 19.4018 0 0
lhand -10.5146 5.22865 0.00306134
lfingers 7.12502 -0 0
lthumb 15.4873 34.6169 0.000418183
rclavicle -2.16383e-14 -5.72593e-16 -1.29373e-31
rhumerus -30.6043 45.5816 -111.058
rradius 67.5053 -0 0
rwrist -1.46634 0 0
rhand -10.2292 -24.8491 0.0175534
rfingers 7.12502 -0 0
rthumb 15.7622 -54.2175 0.019688
817
root 2.0266 16.6612 22.8711 4.88184 -0.914616 -6.94238
lfemur -38.0298 -0.123474 1.65975
ltibia 19.2675 -0 0
lfoot -8.69682 10.4213 0.0212135
ltoes 17.0325 -0 0
rfemur 2.79003 5.91801 22.1551
rtibia 20.8688 -0 0
rfoot -21.9717 -11.0752 -0.00534782
rtoes -23.2041 0 0
lowerback 0.604924 6.31488 5.78012
upperback -0.155789 8.46186 -0.198017
thorax 0.362761 4.23735 -3.3552
lowerneck -5.76682 -1.57328 3.05114
upperneck -0.516899 -2.30628 1.36424
head 0.773514 -1.13269 -0.139313
lclavicle -1.59193e-14 -5.87661e-16 -6.75325e-32
lhumerus -53.1322 -6.89286 91.3028
lradius 53.1245 -0 0
lwrist 19.1887 0 0
lhand -9.64435 5.30377 0.00272703
lfingers 7.12502 -0 0
lthumb 16.3254 34.6259 0.000337429
rclavicle -1.59193e-14 -5.87661e-16 -6.75325e-32
rhumerus -30.3232 45.5535 -110.507
rradius 67.3795 -0 0
rwrist -1.78451 0 0
rhand -9.34255 -24.3059 0.0184406
rfingers 7.12502 -0 0
rthumb 16.6159 -53.604 0.0206821
818
root 2.06286 16.6331 23.0409 4.8131 -2.16455 -7.18211
lfemur -37.2022 -0.4957 2.58491
ltibia 18.1123 -0 0
lfoot -8.38747 12.2544 0.0202202
ltoes 17.8274 -0 0
rfemur 3.86823 6.25644 22.248
rtibia 20.0564 -0 0
rfoot -21.7792 -11.5542 -0.00391312
rtoes -23.965 0 0
lowerback 0.413559 6.51653 5.85352
upperback -0.202875 8.71988 -0.130938
thorax 0.446974 4.36738 -3.29837
lowerneck -5.66883 -1.53285 3.1371
upperneck -0.288752 -2.25982 1.36649
head 0.828159 -1.10647 -0.152506
lclavicle -1.03662e-14 -4.83342e-16 -6.10573e-34
lhumerus -53.1731 -6.66898 91.0425
lradius 52.7147 -0 0
lwrist 18.973 0 0
lhand -8.75835 5.36868 0.0020148
lfingers 7.12502 -0 0
lthumb 17.1786 34.6217 0.000406726
rclavicle -1.03662e-14 -4.83342e-16 -6.10573e-34
rhumerus -30.0535 45.4843 -109.899
rradius 67.2569 -0 0
rwrist -2.0653 0 0
rhand -8.51092 -23.7494 0.0152636
rfingers 7.12502 -0 0
rthumb 17.4166 -52.9801 0.0170907
819
root 2.10183 16.6039 23.2135 4.72303 -3.32639 -7.39598
lfemur -36.4468 -0.755612 3.31332
ltibia 17.2811 -0 0
lfoot -8.05441 13.8128 0.0133409
ltoes 18.5168 -0 0
rfemur 4.89574 6.45644 22.2747
rtibia 19.3914 -0 0
rfoot -21.5808 -11.9781 -0.00183132
rtoes -24.8723 0 0
lowerback 0.218593 6.70064 5.91375
upperback -0.255573 8.95394 -0.0643526
thorax 0.52281 4.48504 -3.23506
lowerneck -5.57872 -1.49249 3.2278
upperneck -0.0380009 -2.21444 1.35976
head 0.891481 -1.08021 -0.169579
lclavicle -5.10168e-15 -2.80501e-16 3.57836e-32
lhumerus -53.2551 -6.42312 90.7723
lradius 52.3548 -0 0
lwrist 18.7347 0 0
lhand -7.91222 5.43014 0.00108117
lfingers 7.12502 -0 0
lthumb 17.9931 34.6146 0.000452683
rclavicle -5.10168e-15 -2.80501e-16 3.57836e-32
rhumerus -29.8011 45.3591 -109.224
rradius 67.1307 -0 0
rwrist -2.29934 0 0
rhand -7.77418 -23.1873 0.00859003
rfingers 7.12502 -0 0
rthumb 18.1258 -52.3576 0.00959378
820
root 2.14416 16.5748 23.3889 4.61266 -4.37788 352.424
lfemur -35.8129 -0.829675 3.76948
ltibia 16.8436 0 0
lfoot -7.6782 14.9523 0
ltoes 19.0378 0 0
rfemur 5.83887 6.48206 22.2095
rtibia 18.917 0 0
rfoot -21.3786 -12.2951 0
rtoes -25.9589 0 0
lowerback 0.0205861 6.85666 5.95921
upperback -0.314538 9.1501 0.00260752
thorax 0.58729 4.58326 -3.16423
lowerneck -5.50381 -1.44827 3.32656
upperneck 0.235501 -2.16531 1.33786
head 0.964776 -1.05151 -0.192986
lclavicle -2.48481e-16 0 0
lhumerus -53.3862 -6.15374 90.498
lradius 52.0513 0 0
lwrist 18.4542 0 0
lhand -7.16163 5.49493 0
lfingers 7.12502 0 0
lthumb 18.7154 34.6146 0
rclavicle -2.48481e-16 0 0
rhumerus -29.5725 45.1631 -108.471
rradius 66.9941 0 0
rwrist -2.47723 0 0
rhand -7.17223 -22.6272 0
rfingers 7.12502 0 0
rthumb 18.7052 -771.748 0
821
root 2.18911 16.5436 23.5676 4.48621 -5.3637 -7.73366
lfemur -35.2884 -0.625767 3.93449
ltibia 16.9006 -0 0
lfoot -7.27101 15.7403 -0.00645621
ltoes 19.5383 -0 0
rfemur 6.772 6.3355 22.0701
rtibia 18.514 -0 0
rfoot -21.2429 -12.5815 -0.00554511
rtoes -27.312 0 0
lowerback -0.188513 6.99435 5.99965
upperback -0.384965 9.32107 0.06919
thorax 0.642044 4.66831 -3.08996
lowerneck -5.43861 -1.3905 3.44152
upperneck 0.534516 -2.09968 1.29514
head 1.04778 -1.01405 -0.225224
lclavicle 4.81209e-15 6.18956e-16 -6.89762e-32
lhumerus -53.5926 -5.84175 90.2057
lradius 51.8222 -0 0
lwrist 18.1106 0 0
lhand -6.46436 5.55585 -0.000861627
lfingers 7.12502 -0 0
lthumb 19.3859 34.6098 -0.00102538
rclavicle 4.81209e-15 6.18956e-16 -6.89762e-32
rhumerus -29.3609 44.9298 -107.66
rradius 66.8683 -0 0
rwrist -2.61933 0 0
rhand -6.60826 -22.0303 -0.00264644
rfingers 7.12502 -0 0
rthumb 19.2481 -51.1049 -0.00412673
